# xmcd
#
# Track frame offsets:
# 150
# 24420
# 45467
# 69737
#
# Disc length: 1207 seconds
#
# Revision: 0
# Processed by: cddbd v1.5.1PL0 Copyright (c) Steve Scherf et al.
# Submitted via: plextools 2.24b
#
DISCID=2c04b504
DTITLE=島谷ひとみ - 真昼の月
DYEAR=2005
DGENRE=JPop
TTITLE0=真昼の月
TTITLE1=prayer
TTITLE2=真昼の月 (instrumental)
TTITLE3=prayer (instrumental)
EXTD=
EXTT0=
EXTT1=
EXTT2=
EXTT3=
PLAYORDER=
